# xmcd
#
# Track frame offsets:
#	150
#	19061
#	37224
#	55953
#	72248
#	93911
#	110208
#	127061
#	142430
#	163310
#	182561
#	201772
#
# Disc length: 2927 seconds
#
# Revision: 4
# Processed by: cddbd v1.5.2PL0 Copyright (c) Steve Scherf et al.
# Submitted via: EasyCDDAExtractor 15.3.0.1
#
DISCID=bf0b6d0c
DTITLE=Ricardo Montaner - Las Mejores Canciones Del Mundo II
DYEAR=2007
DGENRE=Latin
TTITLE0=Algo De Mi
TTITLE1=Ansiedad
TTITLE2=Y Como Es El
TTITLE3=Santa Lucia
TTITLE4=Sin Ti (Without You)
TTITLE5=Cuando Un Amigo Se Va
TTITLE6=Yo Vengo A Ofrecer Mi Corazon
TTITLE7=De Repente
TTITLE8=Se Que Estas Aqui (You're My Everything)
TTITLE9=Los Que Se Aman
TTITLE10=Tengo Miedo
TTITLE11=Besame (Featuring Pasion Vega)
EXTD=
EXTT0=
EXTT1=
EXTT2=
EXTT3=
EXTT4=
EXTT5=
EXTT6=
EXTT7=
EXTT8=
EXTT9=
EXTT10=
EXTT11=
PLAYORDER=
